# xmcd
#
# Track frame offsets: 
#        150
#        15727
#        28312
#        39172
#        51700
#        70950
#        90049
#        101866
#        118411
#        136132
#        149149
#        161458
#        173134
#        187014
#        197104
#        207256
#        223783
#        233470
#        246811
#        264259
#        281713
#        293052
#        306837
#        319350
#
# Disc length: 4460 seconds
#
# Revision: 0
# Processed by: cddbd v1.5.2PL0 Copyright (c) Steve Scherf et al.
# Submitted via: ExactAudioCopy v1.1
#
DISCID=72116a18
DTITLE=Various Artist - A Country Christmas - CD 1
DYEAR=2013
DGENRE=Country
TTITLE0=Johnny Paycheck - Honky Tonk Christmas
TTITLE1=Chet Atkins - Winter Wonderland
TTITLE2=Eddy Arnold - White Christmas
TTITLE3=Jim Reeves - An Old Christmas Card
TTITLE4=Lynn Anderson - The First Noel
TTITLE5=Johnny Cash - What Child Is This?
TTITLE6=Glen Campbell - Frosty The Snowman
TTITLE7=Faron Young - O Little Town Of Bethlehem
TTITLE8=June Carter and The Carter Family - It Came Upon A Midnight Clea
TTITLE8=r
TTITLE9=Dave Dudley - Can I Sing A Christmas Song For You?
TTITLE10=Johnny Cash - Here Was A Man
TTITLE11=Gene Autry - Up On the Housetop
TTITLE12=Moe Bandy - I'll Be Home For Christmas
TTITLE13=Glen Campbell - Santa Claus Is Coming To Town
TTITLE14=Dave Dudley - Six Tons Of Toys
TTITLE15=Vikki Carr - It Must Have Been The Mistletoe
TTITLE16=George Jones - Maybe Next Christmas
TTITLE17=The Louvin Brothers - Good Christian Men Rejoice
TTITLE18=Burl Ives - Twelve Days Of Christmas
TTITLE19=Janie Fricke - Angels We Have Heard On High
TTITLE20=Jimmie Rodgers - I Heard the Bells on Christmas Day
TTITLE21=Johnny Cash - Blue Christmas
TTITLE22=Roy Clark - Jingle Bells
TTITLE23=Johnny Cash - Silent Night
EXTD=
EXTT0=
EXTT1=
EXTT2=
EXTT3=
EXTT4=
EXTT5=
EXTT6=
EXTT7=
EXTT8=
EXTT9=
EXTT10=
EXTT11=
EXTT12=
EXTT13=
EXTT14=
EXTT15=
EXTT16=
EXTT17=
EXTT18=
EXTT19=
EXTT20=
EXTT21=
EXTT22=
EXTT23=
PLAYORDER=
